<svg width="17" height="16" viewBox="0 0 17 16" fill="none" xmlns="http://www.w3.org/2000/svg">
<path d="M1.7479 15.878C2.59747 14.9227 3.38896 13.931 3.69498 12.6095C3.37682 12.3939 3.03006 12.1871 2.71277 11.9403C1.09338 10.6812 0.0175447 9.09425 0.000206477 6.92895C-0.0162648 4.83494 0.953808 3.21854 2.52552 2.00491C5.99402 -0.672756 10.9423 -0.655826 14.4447 1.98085C16.5799 3.58833 17.5161 6.30609 16.7177 8.64782C16.0762 10.5298 14.7732 11.8031 13.0801 12.687C11.2666 13.6342 9.33249 13.8989 7.32126 13.7287C7.08893 13.7091 6.80979 13.7777 6.61126 13.9033C5.24068 14.7686 3.78774 15.436 2.25157 15.9172C2.1198 15.9581 1.98023 15.9724 1.84412 16C1.81205 15.959 1.77911 15.918 1.74703 15.8771L1.7479 15.878Z" fill="#3C1E1E"/>
</svg>
