<svg width="12" height="12" viewBox="0 0 12 12" fill="none" xmlns="http://www.w3.org/2000/svg">
<mask id="mask0_40000082_2258" style="mask-type:alpha" maskUnits="userSpaceOnUse" x="-2" y="-2" width="16" height="16">
<rect x="-2" y="-2" width="16" height="16" fill="#D9D9D9"/>
</mask>
<g mask="url(#mask0_40000082_2258)">
<path d="M7.97647 8.71359L8.71359 7.97647L6.52941 5.79V2.64706H5.47059V6.20771L7.97647 8.71359ZM6.00035 12C5.16753 12 4.38735 11.8425 3.65982 11.5276C2.93218 11.2126 2.29776 10.7846 1.75659 10.2434C1.21541 9.70224 0.787353 9.068 0.472412 8.34071C0.157471 7.6133 0 6.83318 0 6.00035C0 5.16753 0.157471 4.38735 0.472412 3.65982C0.787353 2.93218 1.21541 2.29776 1.75659 1.75659C2.29776 1.21541 2.932 0.787353 3.65929 0.472412C4.38671 0.157471 5.16682 0 5.99965 0C6.83247 0 7.61265 0.157471 8.34018 0.472412C9.06782 0.787353 9.70224 1.21541 10.2434 1.75659C10.7846 2.29776 11.2126 2.932 11.5276 3.65929C11.8425 4.38671 12 5.16682 12 5.99965C12 6.83247 11.8425 7.61265 11.5276 8.34018C11.2126 9.06782 10.7846 9.70224 10.2434 10.2434C9.70224 10.7846 9.068 11.2126 8.34071 11.5276C7.6133 11.8425 6.83318 12 6.00035 12ZM6 10.9412C7.37647 10.9412 8.54412 10.4618 9.50294 9.50294C10.4618 8.54412 10.9412 7.37647 10.9412 6C10.9412 4.62353 10.4618 3.45588 9.50294 2.49706C8.54412 1.53824 7.37647 1.05882 6 1.05882C4.62353 1.05882 3.45588 1.53824 2.49706 2.49706C1.53824 3.45588 1.05882 4.62353 1.05882 6C1.05882 7.37647 1.53824 8.54412 2.49706 9.50294C3.45588 10.4618 4.62353 10.9412 6 10.9412Z" fill="#9D9D9D"/>
</g>
</svg>
