<svg width="18" height="19" viewBox="0 0 18 19" fill="none" xmlns="http://www.w3.org/2000/svg">
<mask id="mask0_40000032_1681" style="mask-type:alpha" maskUnits="userSpaceOnUse" x="-4" y="-3" width="25" height="25">
<rect x="-3.48755" y="-2.55664" width="24" height="24" fill="#D9D9D9"/>
</mask>
<g mask="url(#mask0_40000032_1681)">
<path d="M0 16.7342V9.86889H6.86532V16.7342H0ZM1.71633 15.0179H5.14899V11.5852H1.71633V15.0179ZM3.00358 7.72348L7.72348 0L12.4434 7.72348H3.00358ZM6.05006 6.00715H9.3969L7.72348 3.30393L6.05006 6.00715ZM16.7986 18.8367L14.5244 16.5626C14.2241 16.7628 13.8987 16.913 13.5483 17.0131C13.1979 17.1132 12.8296 17.1633 12.4434 17.1633C11.3707 17.1633 10.4589 16.7878 9.70799 16.0369C8.95709 15.2861 8.58165 14.3743 8.58165 13.3015C8.58165 12.2288 8.95709 11.317 9.70799 10.5661C10.4589 9.81526 11.3707 9.43981 12.4434 9.43981C13.5161 9.43981 14.4279 9.81526 15.1788 10.5661C15.9297 11.317 16.3051 12.2288 16.3051 13.3015C16.3051 13.6734 16.2551 14.0346 16.1549 14.385C16.0548 14.7354 15.9118 15.0608 15.7259 15.3611L18 17.6353L16.7986 18.8367ZM12.4434 15.447C13.0441 15.447 13.5518 15.2396 13.9666 14.8248C14.3814 14.41 14.5888 13.9023 14.5888 13.3015C14.5888 12.7008 14.3814 12.1931 13.9666 11.7783C13.5518 11.3635 13.0441 11.1561 12.4434 11.1561C11.8427 11.1561 11.3349 11.3635 10.9201 11.7783C10.5054 12.1931 10.298 12.7008 10.298 13.3015C10.298 13.9023 10.5054 14.41 10.9201 14.8248C11.3349 15.2396 11.8427 15.447 12.4434 15.447Z" fill="#282828"/>
</g>
</svg>
