<svg width="20" height="20" viewBox="0 0 20 20" fill="none" xmlns="http://www.w3.org/2000/svg">
<path d="M8 14C9.30585 14 10.4141 14.8353 10.8262 16H19L19.1025 16.0049C19.6067 16.0562 20 16.4823 20 17C20 17.5177 19.6067 17.9438 19.1025 17.9951L19 18H10.8262C10.4141 19.1647 9.30585 20 8 20C6.69415 20 5.58594 19.1647 5.17383 18H1C0.447715 18 0 17.5523 0 17C0 16.4477 0.447715 16 1 16H5.17383C5.58594 14.8353 6.69415 14 8 14ZM8 16C7.44772 16 7 16.4477 7 17C7 17.5523 7.44772 18 8 18C8.55229 18 9 17.5523 9 17C9 16.4477 8.55229 16 8 16ZM16 7C17.6569 7 19 8.34315 19 10C19 11.6569 17.6569 13 16 13C14.6941 13 13.5859 12.1647 13.1738 11H1C0.447715 11 0 10.5523 0 10C0 9.44771 0.447715 9 1 9H13.1738C13.5859 7.83532 14.6941 7 16 7ZM16 9C15.4477 9 15 9.44771 15 10C15 10.5523 15.4477 11 16 11C16.5523 11 17 10.5523 17 10C17 9.44771 16.5523 9 16 9ZM3 0C4.30585 0 5.41406 0.835321 5.82617 2H19C19.5523 2 20 2.44772 20 3C20 3.55228 19.5523 4 19 4H5.82617C5.41406 5.16468 4.30585 6 3 6C1.34315 6 0 4.65685 0 3C0 1.34315 1.34315 0 3 0ZM3 2C2.44772 2 2 2.44772 2 3C2 3.55228 2.44772 4 3 4C3.55228 4 4 3.55228 4 3C4 2.44772 3.55228 2 3 2Z" fill="black"/>
</svg>
