<svg width="14" height="13" viewBox="0 0 14 13" fill="none" xmlns="http://www.w3.org/2000/svg">
<path d="M12.3846 1.69565H10.5188L9.60144 0.251522C9.55229 0.174194 9.48573 0.110785 9.40766 0.0669115C9.32958 0.0230384 9.2424 5.58187e-05 9.15385 0H4.84615C4.7576 5.58187e-05 4.67042 0.0230384 4.59234 0.0669115C4.51427 0.110785 4.44771 0.174194 4.39856 0.251522L3.48048 1.69565H1.61538C1.18696 1.69565 0.776079 1.8743 0.473135 2.1923C0.170192 2.51029 0 2.94159 0 3.3913V11.3043C0 11.7541 0.170192 12.1854 0.473135 12.5034C0.776079 12.8214 1.18696 13 1.61538 13H12.3846C12.813 13 13.2239 12.8214 13.5269 12.5034C13.8298 12.1854 14 11.7541 14 11.3043V3.3913C14 2.94159 13.8298 2.51029 13.5269 2.1923C13.2239 1.8743 12.813 1.69565 12.3846 1.69565ZM9.42308 7.06522C9.42308 7.56827 9.28097 8.06003 9.01472 8.4783C8.74846 8.89657 8.37003 9.22257 7.92727 9.41508C7.48451 9.60759 6.99731 9.65796 6.52728 9.55982C6.05725 9.46168 5.6255 9.21944 5.28663 8.86373C4.94775 8.50802 4.71698 8.05481 4.62348 7.56143C4.52999 7.06804 4.57797 6.55663 4.76137 6.09187C4.94477 5.62711 5.25534 5.22987 5.65381 4.95039C6.05228 4.67091 6.52076 4.52174 7 4.52174C7.64264 4.52174 8.25896 4.78971 8.71337 5.26671C9.16779 5.7437 9.42308 6.39065 9.42308 7.06522Z" fill="#FF5100"/>
</svg>
