<svg width="20" height="20" viewBox="0 0 20 20" fill="none" xmlns="http://www.w3.org/2000/svg">
<path d="M9 0C13.9706 0 18 4.02944 18 9C18 11.125 17.2619 13.0766 16.0303 14.6162L19.707 18.293C20.0976 18.6835 20.0976 19.3165 19.707 19.707C19.3165 20.0976 18.6835 20.0976 18.293 19.707L14.6162 16.0303C13.0766 17.2619 11.125 18 9 18C4.02944 18 0 13.9706 0 9C0 4.02944 4.02944 0 9 0ZM9 2C5.13401 2 2 5.13401 2 9C2 12.866 5.13401 16 9 16C10.893 16 12.6091 15.2472 13.8691 14.0264C13.8921 13.9977 13.9168 13.9699 13.9434 13.9434C13.9699 13.9168 13.9977 13.8921 14.0264 13.8691C15.2472 12.6091 16 10.893 16 9C16 5.13401 12.866 2 9 2Z" fill="black"/>
</svg>
