<svg width="13" height="14" viewBox="0 0 13 14" fill="none" xmlns="http://www.w3.org/2000/svg">
<path fill-rule="evenodd" clip-rule="evenodd" d="M8.33389 0.0241921L0.824708 0.586626C0.217028 0.62989 0 1.0409 0 1.5168V9.73699C0 10.1047 0.130217 10.4292 0.45576 10.8402L2.21369 13.1332C2.49583 13.501 2.77796 13.5875 3.32053 13.5442L12.0451 13.0251C12.783 12.9818 13 12.6357 13 12.0516V2.7931C13 2.49025 12.8915 2.40372 12.5225 2.14413C12.5008 2.1225 12.4791 2.1225 12.4574 2.10087L10.0701 0.435201C9.50584 0.00256002 9.26711 -0.0407041 8.33389 0.0241921ZM3.51586 2.64167C2.79967 2.68494 2.64775 2.70657 2.23539 2.36045L1.21536 1.56007C1.10684 1.45191 1.15025 1.32212 1.43239 1.30048L8.65943 0.781314C9.26711 0.73805 9.57095 0.932738 9.80968 1.12743L11.0467 2.01434C11.1119 2.03597 11.2421 2.1874 11.0684 2.1874L3.60267 2.64167H3.51586ZM2.69115 11.9651V4.11265C2.69115 3.76654 2.79967 3.61511 3.10351 3.59348L11.6761 3.09594C11.9583 3.07431 12.0885 3.24737 12.0885 3.59348V11.381C12.0885 11.7271 12.0234 12.0084 11.5676 12.03L3.36394 12.5059C2.90818 12.5492 2.69115 12.3761 2.69115 11.9651ZM10.7863 4.54529C10.8297 4.78325 10.7863 5.0212 10.5476 5.04283L10.1569 5.12936V10.9267C9.80968 11.1214 9.50584 11.208 9.24541 11.208C8.83305 11.208 8.72454 11.0782 8.399 10.6888L5.79466 6.62197V10.5374L6.61937 10.7321C6.61937 10.7321 6.61937 11.208 5.96828 11.208L4.14524 11.3161C4.10184 11.208 4.14524 10.9484 4.31886 10.9051L4.79633 10.7753V5.58363L4.14524 5.51873C4.10184 5.28078 4.23205 4.93467 4.601 4.91304L6.55426 4.78325L9.24541 8.89334V5.25915L8.55092 5.17262C8.50751 4.89141 8.70284 4.67508 8.96327 4.65345L10.7863 4.54529Z" fill="white"/>
</svg>
